<svg width="14" height="14" viewBox="0 0 14 14" fill="none" xmlns="http://www.w3.org/2000/svg">
<path d="M13.6313 5.11925C13.5453 4.86725 13.3179 4.68925 13.0526 4.66859L9.25195 4.36659L7.60728 0.725919C7.49995 0.486585 7.26195 0.333252 6.99995 0.333252C6.73795 0.333252 6.49995 0.486585 6.39261 0.725252L4.74795 4.36659L0.947279 4.66859C0.686612 4.68925 0.461945 4.86059 0.373279 5.10659C0.284612 5.35259 0.347279 5.62792 0.534612 5.81059L3.34328 8.54859L2.34995 12.8499C2.28861 13.1159 2.39595 13.3926 2.62061 13.5479C2.73528 13.6266 2.86728 13.6666 2.99995 13.6666C3.12861 13.6666 3.25795 13.6293 3.36995 13.5546L6.99995 11.1346L10.6299 13.5546C10.8619 13.7093 11.1666 13.7033 11.3933 13.5386C11.6186 13.3739 11.7179 13.0853 11.6413 12.8173L10.4219 8.55059L13.4459 5.82925C13.6439 5.65059 13.7166 5.37192 13.6313 5.11925Z" fill="#FFBA08"/>
</svg>
