<svg width="14" height="14" viewBox="0 0 14 14" fill="none" xmlns="http://www.w3.org/2000/svg">
<path opacity="0.5" d="M3.34399 8.54859L2.35066 12.8499C2.28932 13.1159 2.39599 13.3926 2.62132 13.5479C2.73532 13.6266 2.86732 13.6666 2.99999 13.6666C3.12866 13.6666 3.25799 13.6293 3.36999 13.5546L6.99999 11.1346L10.63 13.5546C10.862 13.7093 11.1667 13.7033 11.3933 13.5386C11.6187 13.3739 11.718 13.0853 11.6413 12.8173L10.422 8.55059L13.446 5.82925C13.644 5.65059 13.7167 5.37192 13.6313 5.11992C13.5453 4.86792 13.318 4.69059 13.0527 4.66925L9.25199 4.36659L7.60732 0.725919C7.49999 0.486585 7.26199 0.333252 6.99999 0.333252C6.73799 0.333252 6.49999 0.486585 6.39266 0.725919L4.74799 4.36659L0.947324 4.66859C0.685991 4.68925 0.461324 4.86059 0.373324 5.10659C0.283991 5.35259 0.347991 5.62792 0.534658 5.81059L3.34399 8.54859ZM5.24599 5.66459C5.48799 5.64525 5.70132 5.49592 5.80066 5.27392L6.99999 2.61992L8.19932 5.27392C8.29866 5.49592 8.51199 5.64525 8.75399 5.66459L11.402 5.87459L9.22132 7.83725C9.03199 8.00792 8.95666 8.27059 9.02599 8.51592L9.86132 11.4393L7.37066 9.77859C7.14666 9.62859 6.85532 9.62859 6.63132 9.77859L4.02866 11.5139L4.72866 8.48325C4.78066 8.25659 4.71132 8.01859 4.54466 7.85659L2.51932 5.88192L5.24599 5.66459Z" fill="white"/>
</svg>
