<svg width="18" height="17" viewBox="0 0 18 17" fill="none" xmlns="http://www.w3.org/2000/svg">
<path d="M15.6666 5.66675H10.99L11.9258 2.86091C12.0941 2.35425 12.0091 1.79258 11.6966 1.35925C11.3841 0.925915 10.8775 0.666748 10.3433 0.666748H8.99996C8.75246 0.666748 8.51829 0.776748 8.35913 0.966748L4.44246 5.66675H2.33329C1.41413 5.66675 0.666626 6.41425 0.666626 7.33341V14.8334C0.666626 15.7526 1.41413 16.5001 2.33329 16.5001H4.83329H13.4225C14.1133 16.5001 14.74 16.0659 14.9833 15.4184L17.2808 9.29258C17.3158 9.19925 17.3333 9.10008 17.3333 9.00008V7.33341C17.3333 6.41425 16.5858 5.66675 15.6666 5.66675ZM2.33329 7.33341H3.99996V14.8334H2.33329V7.33341ZM15.6666 8.84925L13.4225 14.8334H5.66663V6.80175L9.38996 2.33341H10.345L9.04329 6.23591C8.95746 6.49008 9.00079 6.76925 9.15746 6.98675C9.31413 7.20508 9.56579 7.33341 9.83329 7.33341H15.6666V8.84925Z" fill="white"/>
</svg>
